# xmcd CD database file
#
# Track frame offsets:
#	150
#	14220
#	27845
#	41222
#	54372
#	70995
#	85462
#	99792
#	117790
#	135885
#	153172
#	170467
#	187042
#	204480
#	223912
#	243307
#	262737
#	278912
#	294817
#	311175
#
# Disc length: 4315 seconds
#
# Revision: 0
# Processed by: cddbd v1.5.2PL0 Copyright (c) Steve Scherf et al.
# Submitted via: CDex 1.40Beta5
#
DISCID=1b10d914
DTITLE=Gian and Giovani - O essencial de Gian and Giovani (Série Focus)
DYEAR=1999
DGENRE=Country
TTITLE0=Me dá um beijo
TTITLE1=Samba e cachaça
TTITLE2=Viola caipira
TTITLE3=Doidinho, doidinho
TTITLE4=Que raio de amor é esse ?
TTITLE5=Pra te ver rebolar
TTITLE6=Amor demais
TTITLE7=Nossa Senhora Aparecida
TTITLE8=Alô
TTITLE9=Te amo menina
TTITLE10=O que é que a gente não faz por amor
TTITLE11=1000 corações
TTITLE12=Medo
TTITLE13=Quem será ?
TTITLE14=O grande amor da minha vida (convite de casamento)
TTITLE15=Eu busco uma estrela (yo busco una estrella)
TTITLE16=Tô pensando nela
TTITLE17=Viagem louca
TTITLE18=1, 2, 3
TTITLE19=Caí no laço
EXTD=YEAR:   Vs ID3G:   2
EXTT0=
EXTT1=
EXTT2=
EXTT3=
EXTT4=
EXTT5=
EXTT6=
EXTT7=
EXTT8=
EXTT9=
EXTT10=
EXTT11=
EXTT12=
EXTT13=
EXTT14=
EXTT15=
EXTT16=
EXTT17=
EXTT18=
EXTT19=
PLAYORDER=
